<?xml version="1.0" encoding="UTF-8"?>
<!DOCTYPE svg PUBLIC "-//W3C//DTD SVG 1.1//EN" "http://www.w3.org/Graphics/SVG/1.1/DTD/svg11.dtd">
<!-- Creator: CorelDRAW X6 -->
<svg xmlns="http://www.w3.org/2000/svg" xml:space="preserve" width="14.986mm" height="13.97mm" version="1.1" style="shape-rendering:geometricPrecision; text-rendering:geometricPrecision; image-rendering:optimizeQuality; fill-rule:evenodd; clip-rule:evenodd"
viewBox="0 0 1499 1397"
 xmlns:xlink="http://www.w3.org/1999/xlink"
 enable-background="new 0 0 100 100">
 <defs>
  <style type="text/css">
   <![CDATA[
    .str0 {stroke:#fff;stroke-width:67.73}
    .fil0 {fill:#fff}
    .fil1 {fill:#fff}
   ]]>
  </style>
 </defs>
 <g id="Слой_x0020_1">
  <metadata id="CorelCorpID_0Corel-Layer"/>
  <g id="_573303080">
   <path class="fil0 str0" d="M536 1128c-64,0 -115,51 -115,114 0,64 51,115 115,115 63,0 115,-51 115,-115 2,-63 -52,-114 -115,-114z"/>
   <path class="fil0 str0" d="M1199 1128c-64,0 -115,51 -115,114 0,64 51,115 115,115 63,0 114,-51 114,-115 3,-63 -51,-114 -114,-114z"/>
   <path class="fil1" d="M1486 243l-1133 0 -42 -211c0,-10 -7,-18 -15,-18l-32 0 -250 0c-8,0 -15,8 -15,18l0 39c0,11 7,19 15,19l245 0 177 902c0,11 7,19 15,19l32 0 814 0c9,0 15,-8 15,-19l0 -38c0,-11 -6,-19 -15,-19l-809 0 -30 -153 901 0c8,0 15,-9 15,-19l0 -39c0,-10 -7,-18 -15,-18l-916 0 -30 -154 1010 0c8,0 15,-8 15,-18l0 -39c0,-10 -7,-18 -15,-18l-1025 0 -30 -154 1116 0c9,0 15,-8 15,-18l0 -39c2,-15 -5,-23 -13,-23z"/>
  </g>
 </g>
</svg>
