<svg xmlns="http://www.w3.org/2000/svg" xmlns:xlink="http://www.w3.org/1999/xlink" preserveAspectRatio="xMidYMid" width="19" height="19" viewBox="0 0 19 19">
  <defs>
    <style>

      .cls-2 {
        fill: #c3d2c0;
      }
    </style>
  </defs>
  <path d="M18.380,14.844 C18.380,14.844 14.844,18.379 14.844,18.379 C14.844,18.379 9.187,12.723 9.187,12.723 C9.187,12.723 3.531,18.379 3.531,18.379 C3.531,18.379 -0.005,14.844 -0.005,14.844 C-0.005,14.844 5.652,9.187 5.652,9.187 C5.652,9.187 -0.005,3.530 -0.005,3.530 C-0.005,3.530 3.531,-0.005 3.531,-0.005 C3.531,-0.005 9.187,5.652 9.187,5.652 C9.187,5.652 14.844,-0.005 14.844,-0.005 C14.844,-0.005 18.380,3.530 18.380,3.530 C18.380,3.530 12.723,9.187 12.723,9.187 C12.723,9.187 18.380,14.844 18.380,14.844 Z" id="path-1" class="cls-2" fill-rule="evenodd"/>
</svg>
