<svg xmlns="http://www.w3.org/2000/svg" xmlns:xlink="http://www.w3.org/1999/xlink" preserveAspectRatio="xMidYMid" width="21" height="21" viewBox="0 0 21 21">
  <defs>
    <style>

      .cls-2 {
        fill: #7b8373;
      }
    </style>
  </defs>
  <path d="M20.503,18.382 C20.503,18.382 18.382,20.503 18.382,20.503 C18.382,20.503 10.250,12.371 10.250,12.371 C10.250,12.371 2.118,20.503 2.118,20.503 C2.118,20.503 -0.003,18.382 -0.003,18.382 C-0.003,18.382 8.129,10.250 8.129,10.250 C8.129,10.250 -0.003,2.118 -0.003,2.118 C-0.003,2.118 2.118,-0.004 2.118,-0.004 C2.118,-0.004 10.250,8.128 10.250,8.128 C10.250,8.128 18.382,-0.004 18.382,-0.004 C18.382,-0.004 20.503,2.118 20.503,2.118 C20.503,2.118 12.371,10.250 12.371,10.250 C12.371,10.250 20.503,18.382 20.503,18.382 Z" id="path-1" class="cls-2" fill-rule="evenodd"/>
</svg>
