<?xml version="1.0" encoding="UTF-8"?>
<!DOCTYPE svg PUBLIC "-//W3C//DTD SVG 1.1//EN" "http://www.w3.org/Graphics/SVG/1.1/DTD/svg11.dtd">
<!-- Creator: CorelDRAW X6 -->
<svg xmlns="http://www.w3.org/2000/svg" xml:space="preserve" width="9.9906mm" height="9.906mm" version="1.1" style="shape-rendering:geometricPrecision; text-rendering:geometricPrecision; image-rendering:optimizeQuality; fill-rule:evenodd; clip-rule:evenodd"
viewBox="0 0 999 991"
 xmlns:xlink="http://www.w3.org/1999/xlink">
 <defs>
  <style type="text/css">
   <![CDATA[
    .fil0 {fill:#86c53b}
   ]]>
  </style>
 </defs>
 <g id="Слой_x0020_1">
  <metadata id="CorelCorpID_0Corel-Layer"/>
  <path class="fil0" d="M619 697l296 296 83 -83 -296 -296c111,-152 98,-365 -39,-502 -152,-152 -399,-152 -548,0 -152,152 -152,396 0,547 138,139 352,151 504,38zm-41 -117c-105,104 -276,104 -381,0 -104,-105 -104,-277 0,-381 105,-105 276,-105 381,0 105,104 105,276 0,381z"/>
 </g>
</svg>
