<?xml version="1.0" encoding="UTF-8"?>
<!DOCTYPE svg PUBLIC "-//W3C//DTD SVG 1.1//EN" "http://www.w3.org/Graphics/SVG/1.1/DTD/svg11.dtd">
<!-- Creator: CorelDRAW X6 -->
<svg xmlns="http://www.w3.org/2000/svg" xml:space="preserve" width="5.334mm" height="5.334mm" version="1.1" style="shape-rendering:geometricPrecision; text-rendering:geometricPrecision; image-rendering:optimizeQuality; fill-rule:evenodd; clip-rule:evenodd"
viewBox="0 0 533 533"
 xmlns:xlink="http://www.w3.org/1999/xlink">
 <defs>
  <style type="text/css">
   <![CDATA[
    .fil0 {fill:#fff}
   ]]>
  </style>
 </defs>
 <g id="Слой_x0020_1">
  <metadata id="CorelCorpID_0Corel-Layer"/>
  <path class="fil0" d="M150 228c33,63 84,115 148,147l49 -49c6,-6 15,-8 22,-6 25,9 52,13 80,13 12,0 22,10 22,22l0 78c0,13 -10,23 -22,23 -210,0 -380,-170 -380,-380 0,-12 10,-22 23,-22l78 0c12,0 22,10 22,22 0,28 5,55 13,80 2,8 1,17 -5,23l-50 49z"/>
 </g>
</svg>
