<?xml version="1.0" encoding="UTF-8"?>
<!DOCTYPE svg PUBLIC "-//W3C//DTD SVG 1.1//EN" "http://www.w3.org/Graphics/SVG/1.1/DTD/svg11.dtd">
<!-- Creator: CorelDRAW X6 -->
<svg xmlns="http://www.w3.org/2000/svg" xml:space="preserve" width="12.2766mm" height="12.446mm" version="1.1" style="shape-rendering:geometricPrecision; text-rendering:geometricPrecision; image-rendering:optimizeQuality; fill-rule:evenodd; clip-rule:evenodd"
viewBox="0 0 1228 1245"
 xmlns:xlink="http://www.w3.org/1999/xlink">
 <defs>
  <style type="text/css">
   <![CDATA[
    .fil0 {fill:#beccba}
   ]]>
  </style>
 </defs>
 <g id="Слой_x0020_1">
  <metadata id="CorelCorpID_0Corel-Layer"/>
  <path class="fil0" d="M833 773c53,40 211,77 337,146 42,23 45,56 49,76 3,21 9,248 9,248l-1229 0c0,0 7,-227 10,-248 3,-20 4,-51 49,-76 125,-71 283,-103 336,-144 21,-16 15,-42 20,-67 5,-25 20,-8 20,-34 0,-27 5,-22 2,-58 -2,-31 -44,-34 -47,-92 0,-12 -22,-20 -34,-39 -13,-19 -33,-52 -33,-89 0,-37 8,-28 8,-75 0,-47 -2,-74 25,-183 10,-40 44,-88 78,-109 45,-29 27,10 181,-25 100,-22 256,81 257,164 3,112 9,104 16,150 5,33 14,25 14,62 0,38 -20,85 -33,103 -12,19 -24,49 -25,61 -8,63 -50,48 -52,82 -2,30 -4,27 1,50 4,20 15,-1 20,24 5,25 2,62 21,73z"/>
 </g>
</svg>
