<svg xmlns="http://www.w3.org/2000/svg" xmlns:xlink="http://www.w3.org/1999/xlink" preserveAspectRatio="xMidYMid" width="21" height="20" viewBox="0 0 21 20">
  <defs>
    <style>

      .cls-2 {
        fill: #fff;
      }
    </style>
  </defs>
  <path d="M18.000,20.000 C18.000,20.000 18.000,9.000 18.000,9.000 C18.000,9.000 21.000,9.000 21.000,9.000 C21.000,9.000 21.000,20.000 21.000,20.000 C21.000,20.000 18.000,20.000 18.000,20.000 ZM12.000,4.000 C12.000,4.000 15.000,4.000 15.000,4.000 C15.000,4.000 15.000,20.000 15.000,20.000 C15.000,20.000 12.000,20.000 12.000,20.000 C12.000,20.000 12.000,4.000 12.000,4.000 ZM6.000,0.000 C6.000,0.000 9.000,0.000 9.000,0.000 C9.000,0.000 9.000,20.000 9.000,20.000 C9.000,20.000 6.000,20.000 6.000,20.000 C6.000,20.000 6.000,0.000 6.000,0.000 ZM0.000,9.000 C0.000,9.000 3.000,9.000 3.000,9.000 C3.000,9.000 3.000,20.000 3.000,20.000 C3.000,20.000 0.000,20.000 0.000,20.000 C0.000,20.000 0.000,9.000 0.000,9.000 Z" id="path-1" class="cls-2" fill-rule="evenodd"/>
</svg>
